<svg width="16" height="23" viewBox="0 0 16 23" fill="none" xmlns="http://www.w3.org/2000/svg">
<path d="M7.97607 15.8118C7.9761 15.9959 8.10375 16.166 8.31081 16.2579C8.51786 16.3497 8.77277 16.3492 8.97927 16.2567L12.344 14.7509C14.0258 13.7447 15.0091 12.1952 15.0073 10.554V8.69919C15.0047 8.5654 14.9042 8.44426 14.7478 8.38629C14.5914 8.32831 14.4059 8.34346 14.2687 8.42542L11.6977 9.95854C9.35011 11.3611 7.97616 13.5221 7.97607 15.8118Z" fill="#F1B71C"/>
<path d="M6.72607 13.8855C6.72665 14.0699 6.60507 14.2404 6.40736 14.3325C6.20964 14.4247 5.966 14.4244 5.76867 14.3317L2.5491 12.8261C0.944493 11.8198 0.00618438 10.2707 0.00732526 8.62977V6.77521C0.00936598 6.64094 0.105516 6.51922 0.255416 6.46115C0.405316 6.40308 0.583021 6.41871 0.713937 6.50147L3.17437 8.03439C5.4147 9.43625 6.72598 11.5965 6.72607 13.8855Z" fill="#F1B71C"/>
<path d="M7.97812 22.3718C7.96036 22.5547 8.05941 22.7318 8.2378 22.8359C8.4162 22.9401 8.6467 22.9554 8.84213 22.8762L12.023 21.5933C13.6385 20.6983 14.675 19.2208 14.8307 17.5906L15.006 15.7446C15.0185 15.6104 14.9397 15.4819 14.803 15.4132C14.6663 15.3446 14.4954 15.3478 14.3625 15.4215L11.8927 16.7917C9.64023 18.0391 8.19512 20.0991 7.97812 22.3718Z" fill="#F1B71C"/>
<path d="M7.03722 20.5853C7.05172 20.7699 6.94874 20.9472 6.7669 21.0505C6.58505 21.1538 6.35184 21.1676 6.15473 21.0867L2.94446 19.756C1.32077 18.8352 0.292781 17.332 0.159943 15.6842L0.0082384 13.8177C-0.00228056 13.6829 0.0786338 13.5547 0.217034 13.4869C0.355434 13.4191 0.52738 13.4235 0.660732 13.4981L3.14999 14.9045C5.41699 16.1881 6.85237 18.2857 7.03722 20.5853Z" fill="#F1B71C"/>
<path d="M5.6749 7.07684C6.01905 7.86242 6.95177 9.16628 7.51945 9.92458C7.61872 10.058 7.79175 10.1389 7.97777 10.1389C8.1638 10.1389 8.33682 10.058 8.43609 9.92458C9.00377 9.16355 9.9365 7.8597 10.2806 7.07411C10.9046 5.64751 9.94454 2.58155 8.67249 1.20951C8.50694 1.03078 8.2538 0.926422 7.98581 0.926422C7.71783 0.926422 7.46468 1.03078 7.29913 1.20951C6.00779 2.58428 5.0429 5.65024 5.6749 7.07684Z" fill="#F1B71C"/>
</svg>
