<svg width="16" height="14" viewBox="0 0 16 14" fill="none" xmlns="http://www.w3.org/2000/svg">
<path d="M13.4853 1.43096C13.7592 1.15442 14.1315 0.997582 14.5208 0.994715C14.9101 0.991847 15.2846 1.14319 15.5627 1.41566C15.8407 1.68813 15.9996 2.05958 16.0045 2.44883C16.0095 2.83807 15.8602 3.21346 15.5893 3.49296L7.74926 13.294C7.61457 13.439 7.45205 13.5554 7.27138 13.6362C7.09072 13.717 6.89563 13.7605 6.69775 13.7643C6.49988 13.768 6.30328 13.7318 6.1197 13.6579C5.93612 13.584 5.76932 13.4738 5.62926 13.334L0.431257 8.13796C0.155034 7.8616 -9.37257e-05 7.48684 4.24844e-08 7.09611C9.38107e-05 6.70538 0.155401 6.33068 0.431757 6.05446C0.708113 5.77824 1.08288 5.62311 1.47361 5.6232C1.86434 5.6233 2.23903 5.77861 2.51526 6.05496L6.62626 10.167L13.4463 1.47696C13.4586 1.46115 13.472 1.44612 13.4863 1.43196L13.4853 1.43096Z" fill="#61EB0C"/>
</svg>
