<svg width="72" height="72" viewBox="0 0 72 72" fill="none" xmlns="http://www.w3.org/2000/svg">
<path d="M54.15 63.87C53.8725 64.1481 53.5428 64.3687 53.1799 64.5193C52.817 64.6698 52.4279 64.7473 52.035 64.7473C51.6421 64.7473 51.253 64.6698 50.8901 64.5193C50.5272 64.3687 50.1975 64.1481 49.92 63.87L43.56 57.51C43.2823 57.2322 43.0619 56.9025 42.9116 56.5396C42.7613 56.1767 42.6839 55.7878 42.6839 55.395C42.6839 55.0022 42.7613 54.6133 42.9116 54.2504C43.0619 53.8875 43.2823 53.5577 43.56 53.28C44.1209 52.7191 44.8817 52.4039 45.675 52.4039C46.0678 52.4039 46.4567 52.4813 46.8196 52.6316C47.1825 52.7819 47.5123 53.0022 47.79 53.28L52.02 57.51L62.64 46.89C62.9177 46.6122 63.2475 46.3919 63.6104 46.2416C63.9733 46.0913 64.3622 46.0139 64.755 46.0139C65.1478 46.0139 65.5367 46.0913 65.8996 46.2416C66.2625 46.3919 66.5923 46.6122 66.87 46.89C67.1478 47.1677 67.3681 47.4975 67.5184 47.8604C67.6687 48.2233 67.7461 48.6122 67.7461 49.005C67.7461 49.3978 67.6687 49.7867 67.5184 50.1496C67.3681 50.5125 67.1478 50.8423 66.87 51.12L54.15 63.87ZM36.24 60H12C8.7 60 6 57.3 6 54V18C6 14.7 8.7 12 12 12H60C63.3 12 66 14.7 66 18V38.04C62.8006 36.5179 59.2678 35.8307 55.7311 36.0424C52.1944 36.2541 48.7689 37.3579 45.7738 39.2507C42.7788 41.1436 40.3118 43.7639 38.6027 46.8675C36.8937 49.9712 35.9983 53.457 36 57C36 58.02 36.09 59.01 36.24 60ZM34.41 38.01C35.37 38.61 36.63 38.61 37.59 38.01L58.8 24.75C59.1008 24.5811 59.3643 24.353 59.5743 24.0794C59.7844 23.8057 59.9368 23.4923 60.0223 23.1581C60.1077 22.8239 60.1245 22.4758 60.0715 22.1349C60.0186 21.794 59.897 21.4674 59.7142 21.1749C59.5313 20.8824 59.291 20.63 59.0078 20.433C58.7246 20.236 58.4044 20.0985 58.0665 20.0289C57.7286 19.9593 57.3802 19.9589 57.0421 20.0278C56.7041 20.0968 56.3836 20.2336 56.1 20.43L36 33L15.9 20.43C15.6164 20.2336 15.2959 20.0968 14.9579 20.0278C14.6199 19.9589 14.2714 19.9593 13.9335 20.0289C13.5956 20.0985 13.2754 20.236 12.9922 20.433C12.709 20.63 12.4687 20.8824 12.2858 21.1749C12.103 21.4674 11.9814 21.794 11.9285 22.1349C11.8755 22.4758 11.8923 22.8239 11.9777 23.1581C12.0632 23.4923 12.2156 23.8057 12.4257 24.0794C12.6358 24.353 12.8992 24.5811 13.2 24.75L34.41 38.01Z" fill="#1E1E1E"/>
</svg>
