<svg width="6" height="8" viewBox="0 0 6 8" fill="none" xmlns="http://www.w3.org/2000/svg">
<path fill-rule="evenodd" clip-rule="evenodd" d="M5.12252 3.4674L1.94252 0.287401C1.80169 0.145416 1.61 0.0655518 1.41002 0.0655518C1.21004 0.0655518 1.01834 0.145416 0.877518 0.287401C0.586726 0.579929 0.586726 1.05237 0.877518 1.3449L3.53252 3.9999L0.877518 6.6549C0.586726 6.94743 0.586726 7.41987 0.877518 7.7124C1.01906 7.85279 1.21067 7.93105 1.41002 7.9299C1.60937 7.93105 1.80098 7.85279 1.94252 7.7124L5.12252 4.5324C5.2645 4.39158 5.34437 4.19988 5.34437 3.9999C5.34437 3.79992 5.2645 3.60823 5.12252 3.4674Z" fill="white"/>
</svg>
