<svg width="130" height="32" viewBox="0 0 130 32" fill="none" xmlns="http://www.w3.org/2000/svg">
<path d="M0 6C0 2.68629 2.68629 0 6 0H124C127.314 0 130 2.68629 130 6V26C130 29.3137 127.314 32 124 32H6C2.68629 32 0 29.3137 0 26V6Z" fill="#1DA1F2"/>
<path d="M34.2918 24.125C41.8371 24.125 45.9652 17.8723 45.9652 12.4516C45.9652 12.2758 45.9613 12.0961 45.9535 11.9204C46.7566 11.3396 47.4496 10.6203 48 9.79614C47.2521 10.1289 46.458 10.3462 45.6449 10.4407C46.5011 9.92748 47.1421 9.12129 47.4492 8.17153C46.6438 8.64886 45.763 8.98557 44.8445 9.16724C44.2257 8.5097 43.4075 8.07432 42.5164 7.92844C41.6253 7.78255 40.711 7.93427 39.9148 8.36014C39.1186 8.78601 38.4848 9.46232 38.1115 10.2845C37.7382 11.1067 37.6462 12.0289 37.8496 12.9086C36.2187 12.8268 34.6233 12.4031 33.1667 11.6651C31.71 10.9271 30.4247 9.89126 29.3941 8.62466C28.8703 9.52776 28.71 10.5964 28.9459 11.6135C29.1817 12.6305 29.7959 13.5196 30.6637 14.1C30.0122 14.0794 29.375 13.904 28.8047 13.5883V13.6391C28.8041 14.5869 29.1317 15.5055 29.7319 16.239C30.3321 16.9725 31.1678 17.4755 32.0969 17.6625C31.4934 17.8277 30.86 17.8517 30.2457 17.7329C30.5079 18.5479 31.018 19.2608 31.7048 19.772C32.3916 20.2832 33.2209 20.5672 34.077 20.5844C32.6237 21.726 30.8285 22.3452 28.9805 22.3422C28.6527 22.3417 28.3253 22.3216 28 22.2821C29.8774 23.4865 32.0613 24.1262 34.2918 24.125Z" fill="white"/>
<path d="M61.5469 11.27V12.572H58.9569V21H57.3609V12.572H54.7569V11.27H61.5469ZM73.5233 13.286L71.1293 21H69.4493L67.8953 15.302L66.3413 21H64.6613L62.2533 13.286H63.8773L65.4873 19.488L67.1253 13.286H68.7913L70.3593 19.46L71.9553 13.286H73.5233ZM75.528 12.264C75.2387 12.264 74.996 12.166 74.8 11.97C74.604 11.774 74.506 11.5313 74.506 11.242C74.506 10.9527 74.604 10.71 74.8 10.514C74.996 10.318 75.2387 10.22 75.528 10.22C75.808 10.22 76.046 10.318 76.242 10.514C76.438 10.71 76.536 10.9527 76.536 11.242C76.536 11.5313 76.438 11.774 76.242 11.97C76.046 12.166 75.808 12.264 75.528 12.264ZM76.312 13.286V21H74.716V13.286H76.312ZM80.2694 14.588V18.858C80.2694 19.1473 80.3348 19.3573 80.4654 19.488C80.6054 19.6093 80.8388 19.67 81.1654 19.67H82.1454V21H80.8854C80.1668 21 79.6161 20.832 79.2334 20.496C78.8508 20.16 78.6594 19.614 78.6594 18.858V14.588H77.7494V13.286H78.6594V11.368H80.2694V13.286H82.1454V14.588H80.2694ZM85.4784 14.588V18.858C85.4784 19.1473 85.5437 19.3573 85.6744 19.488C85.8144 19.6093 86.0477 19.67 86.3744 19.67H87.3544V21H86.0944C85.3757 21 84.8251 20.832 84.4424 20.496C84.0597 20.16 83.8684 19.614 83.8684 18.858V14.588H82.9584V13.286H83.8684V11.368H85.4784V13.286H87.3544V14.588H85.4784ZM95.8954 16.954C95.8954 17.2433 95.8767 17.5047 95.8394 17.738H89.9454C89.9921 18.354 90.2207 18.8487 90.6314 19.222C91.0421 19.5953 91.5461 19.782 92.1434 19.782C93.0021 19.782 93.6087 19.4227 93.9634 18.704H95.6854C95.4521 19.4133 95.0274 19.9967 94.4114 20.454C93.8047 20.902 93.0487 21.126 92.1434 21.126C91.4061 21.126 90.7434 20.9627 90.1554 20.636C89.5767 20.3 89.1194 19.8333 88.7834 19.236C88.4567 18.6293 88.2934 17.9293 88.2934 17.136C88.2934 16.3427 88.4521 15.6473 88.7694 15.05C89.0961 14.4433 89.5487 13.9767 90.1274 13.65C90.7154 13.3233 91.3874 13.16 92.1434 13.16C92.8714 13.16 93.5201 13.3187 94.0894 13.636C94.6587 13.9533 95.1021 14.4013 95.4194 14.98C95.7367 15.5493 95.8954 16.2073 95.8954 16.954ZM94.2294 16.45C94.2201 15.862 94.0101 15.3907 93.5994 15.036C93.1887 14.6813 92.6801 14.504 92.0734 14.504C91.5227 14.504 91.0514 14.6813 90.6594 15.036C90.2674 15.3813 90.0341 15.8527 89.9594 16.45H94.2294ZM99.062 14.406C99.2953 14.014 99.6033 13.7107 99.986 13.496C100.378 13.272 100.84 13.16 101.372 13.16V14.812H100.966C100.341 14.812 99.8647 14.9707 99.538 15.288C99.2207 15.6053 99.062 16.156 99.062 16.94V21H97.466V13.286H99.062V14.406Z" fill="white"/>
</svg>
