<svg width="40" height="24" viewBox="0 0 40 24" fill="none" xmlns="http://www.w3.org/2000/svg">
<rect width="40" height="24" rx="4" fill="#26337A"/>
<path fill-rule="evenodd" clip-rule="evenodd" d="M16.5959 15.8186L17.8258 8.18896H19.7918L18.562 15.8186H16.5959Z" fill="#FFFFFE"/>
<path fill-rule="evenodd" clip-rule="evenodd" d="M25.6933 8.37627C25.3045 8.22314 24.6932 8.05615 23.9316 8.05615C21.9879 8.05615 20.6197 9.09153 20.6084 10.5741C20.596 11.6708 21.5847 12.2824 22.3301 12.6469C23.0962 13.0205 23.3536 13.2596 23.3505 13.5937C23.3452 14.1047 22.7391 14.3389 22.1738 14.3389C21.3867 14.3389 20.9685 14.2236 20.322 13.9387L20.0691 13.8173L19.7942 15.5251C20.2526 15.7376 21.1025 15.9221 21.9845 15.9318C24.0501 15.9318 25.3924 14.9089 25.4081 13.3257C25.4152 12.456 24.8913 11.7969 23.7568 11.2527C23.0697 10.8989 22.6481 10.6645 22.6529 10.3064C22.6534 9.98934 23.0091 9.64984 23.7791 9.64984C24.4222 9.63948 24.8877 9.78798 25.2505 9.94303L25.427 10.0302L25.6933 8.37627Z" fill="#FFFFFE"/>
<path fill-rule="evenodd" clip-rule="evenodd" d="M28.311 13.1136C28.4739 12.6751 29.0942 10.981 29.0942 10.981C29.0827 11.0012 29.2562 10.5391 29.3555 10.2531L29.4882 10.9111C29.4882 10.9111 29.8654 12.7322 29.9431 13.1136C29.6371 13.1136 28.6949 13.1136 28.311 13.1136ZM30.7364 8.19678H29.2171C28.7458 8.19678 28.3931 8.33176 28.1867 8.82923L25.2671 15.8213H27.332C27.332 15.8213 27.6689 14.8807 27.7453 14.6743C27.9705 14.6743 29.977 14.6782 30.2634 14.6782C30.3223 14.9445 30.5027 15.8213 30.5027 15.8213H32.3275L30.7364 8.19678Z" fill="#FFFFFE"/>
<path fill-rule="evenodd" clip-rule="evenodd" d="M14.9467 8.19531L13.0225 13.3969L12.8164 12.3395C12.4578 11.1213 11.3416 9.80083 10.093 9.1392L11.8534 15.8119L13.934 15.8106L17.03 8.19531H14.9467Z" fill="#FFFFFE"/>
<path fill-rule="evenodd" clip-rule="evenodd" d="M11.2362 8.19043H8.06588L8.03979 8.34851C10.5067 8.98051 12.1389 10.506 12.8163 12.3398L12.1274 8.83415C12.0086 8.35066 11.6631 8.20733 11.2362 8.19043Z" fill="#EC982D"/>
</svg>
